<?xml version="1.0" encoding="UTF-8" standalone="no"?>
<!-- Created with Inkscape (http://www.inkscape.org/) -->
<svg xmlns="http://www.w3.org/2000/svg" version="1.1"
  xmlns:xlink="http://www.w3.org/1999/xlink"
  xmlns:svgjs="http://svgjs.dev/svgjs" viewBox="0 0 800 800">
  <defs>
    <linearGradient x1="50%" y1="0%" x2="50%" y2="100%" id="ssscribble-grad">
      <stop stop-color="hsl(272, 100%, 26%)" stop-opacity="0.5" offset="0%"></stop>
      <stop stop-color="hsl(272, 65%, 23%)" stop-opacity="0.5" offset="100%"></stop>
    </linearGradient>
  </defs>
  <g fill="none" stroke-width="1" stroke="url(#ssscribble-grad)" stroke-linecap="round" stroke-dasharray="1">
    <path d="M736.05 215.08C793.36 232.48 875.5 249.58 962.09 267 1034.73 285.3 1075.14 305.62 1075.31 329.61 965.85 386.7 794.32 472.77 684.92 592.8 700.66 713.69 810.94 821.16 926.91 860.09 981.99 809.43 937.96 688.05 825.07 586.71 684.05 616.99 568.35 786.89 500.22 973.85 479.64 997.98 493.56 836.91 518.04 686.85 562.96 879.53 571.15 937.09 559.2 770.19 549.52 719.12 535.94 749.53 518.54 850.72 501.15 976.69 480.34 1067.26 456.13 1082.75 431.67 1018.08 403.34 902.06 370.97 784.84 304.39 714.62 220.71 889.35 125.68 1041.18 40.91 965.58 -30.31 750.21 -63.36 632.94 -48.84 708.81 16.89 865.39 112.31 938.58 179.59 870.42 182.37 710.01 91.07 560.23 -131.87 467.51 -84.09 575.89 87.79 607.35 80.91 610.31 35.38 606.89 -40.7 598.06 -130.73 588.54 -214.63 574.87 -271.94 557.47 -288.61 540.07 -260.3 519.36 -195.11 495 -108.39 469.95 -20.01 439.98 50.98 404.22 91.48 327.35 -4.86 223.65 -146.51 104.63 -230.91 10.86 -191.88 -38.44 -61.11 -3.37 93.78 92.77 196.02 203.24 218.94 225.82 170.05 107.06 92.37 -90.77 27.53 -202.9 -13.56 -121.89 -10.49 62.27 25.46 112.42 84.84 -64.88 152.98 -259.44 215.83 -202.7 248.47 -92.21 277.96 18.69 303.67 79.95 329.49 61.06 351.26 -31.23 368.66 -157.19 386.05 -258.41 398.66 -287.11 406.73 -232.63 416.86 -59.74 419.32 -84.61 417.82 -241.93 442.16 -66.39 496.39 125.89 591.11 138.03 709.58 -12.68 837.21 -141.34 931.7 -126.05 954.38 20.85 893.39 192.19 774.73 296.5 680.19 311.22 672.36 261.06 782.26 200.47 970.04 135.58 732.65 189.04 736.05 215.08Q736.05 215.08 736.05 215.08" opacity="0.76"></path>
    <path d="M700.05 370.06C828.53 402.37 981.95 458.01 1043.47 534.29 973.46 608.1 819.95 691.3 683.46 760.83 636.57 791.02 691.97 766.82 798.2 681.39 899.52 587.35 935.23 529.98 896.44 579.09 798.91 730.74 678.35 905.49 568.94 967.88 480.53 866.17 427.27 696.49 400.38 653.18 394.1 810.74 394.3 1007.91 389.14 1006.01 387.3 810.83 371.83 683 339.52 814.72 307.21 1023.69 259.6 1007.24 200.5 796.94 144.74 667.26 85.77 769.58 36.05 951.99 6.95 998.13 7.01 849.98 45.62 662.01 142.32 628.81 194.03 869.61 22.07 746.63 -117.8 600.8 -202.18 480.69 -178.97 406.66 -66.16 371.28 68.95 364.17 126.49 361.33 52.5 366.73 -107.46 356.58 -235.94 324.28 -231.2 291.97 -97.7 239.04 59.44 172.71 132.73 114.61 81.72 62.94 -42.22 42.33 -159.5 60.35 -189.67 127.24 -122.16 223.27 10.37 282.28 146.66 264.33 239.27 137.46 271.47 -35.58 248.86 -153.43 200.16 -114.15 98.04 -38.54 176.8 82.75 227.64 -121.19 259.95 -252.98 285.97 -118.66 310.24 89 340.33 103.43 379.77 -75.33 438.15 -209.23 512.86 -142.28 610.97 56.36 723.48 191.73 856.47 94.8 801.86 -37.65 653.96 158.03 620.1 293.27 679.25 370.7 820.21 396.51 967.84 382.98 1037.24 358.56 976.42 345.68 831.74 330.32 704.79 337.76 700.05 370.06Q700.05 370.06 700.05 370.06" opacity="0.07"></path>
    <path d="M664.07 577.1C881.26 658.18 606.86 571.06 666.28 477.75 767.88 481.25 850.87 563.08 884.05 715.75 862.97 862.45 793.48 926.29 701.08 851.51 597.15 703.28 505.62 605.72 434.12 674 375.58 863.43 334.08 999.24 302.21 932.64 275.34 741.58 248.86 647.68 219.04 778.73 189.22 977.02 157.45 991.78 128.09 814.17 103.71 646.85 90.96 666.07 97.81 825.86 117.63 958.49 160.05 926.84 218.01 768.47 264.45 602.03 291.12 542.07 273.11 595.02 200.85 712.11 82.49 803.4 -50.15 825.59 -144.56 779.04 -163.43 685.16 -90.75 582.58 30.2 477.29 137.04 396.19 157.27 338.89 67.11 289.4 -84.14 252.59 -199.92 222.76 -200.98 192.94 -87.12 171.51 62.81 164.75 160.14 165.81 154.12 192.64 63.81 246.24 -58.71 297.14 -138.53 341.92 -140.07 342.53 -65.98 274.4 53.25 140.3 173.43 -15.87 292.46 43.06 203.51 -169.97 199 -32.31 204.79 133.8 223.62 113.06 253.44 -85.19 283.27 -216.31 322.67 -116.41 373.11 86.15 426.62 164.31 495.34 45.51 578.43 -122.06 660.53 -168.52 744.65 -44.24 813.52 135.03 849.1 240.9 841.51 212.44 784.39 104.85 703.3 -8.73 619.42 -47.77 576.36 -5.33 608.94 98.27 715.5 218.69 859.88 321.49 972.06 407.42 995.08 462.18 909.29 497.61 770.86 523.31 663.02 547.27 664.05 577.09Q664.07 577.1 664.07 577.1" opacity="0.21"></path>
    <path d="M628.07 476.12C731.39 503.46 866.26 511.03 956.23 498.69 958.96 485.5 871.94 455.02 741.89 418.78 621.97 403.99 559.07 417.17 563.9 481.15 626.54 589.38 710.4 726.78 781.29 842.63 826.22 878.48 827.44 813.36 792.5 677.85 729.64 576.14 653.89 588.18 579.48 732.77 503.01 904.09 438.49 964.1 387.58 850.12 338.77 675.69 301 614.16 273.66 742.73 238.52 949.48 234.71 622.69 271.2 691.22 298.23 849.66 328.96 925.98 349.68 868.62 342.49 717.41 302.03 569.51 221.27 495.71 114.54 512.57 -1.72 589.06 -92.83 671.89 -126.13 738.8 -87.75 757.75 12.13 736.59 122.14 686.52 193.6 623.74 180.32 565.53 79.81 503.51 -60.6 456.81 -163.92 429.47 -169.9 402.12 -75.37 395.44 62.54 405.89 174.27 412.54 207.94 425.59 160.03 428.3 57.05 402.1 -43.78 338.14 -99.47 229.11 -95.01 104.14 -30.43 -11.6 67.69 -64.32 179.23 -26.37 275.04 89.1 343.04 211.85 384.21 240.78 399.89 139.97 401.86 -38.49 386.69 -134.89 387.63 160.26 421.08 -49.19 448.41 -177.82 489.57 -110.81 542.2 74.16 593.42 198.73 652.01 154.32 710.13 3.04 755.55 -121.53 784.89 -109.07 785.87 21.09 760.02 185.07 703.45 282.61 627.75 282.6 565.44 202.58 533.27 104.43 557.26 38.33 641.39 16.49 766.75 48.33 889.77 110.49 957.74 194.11 939.65 274.32 838.48 339.06 711.12 402.97 622.11 448.77 628.05 476.11Q628.07 476.12 628.07 476.12" opacity="0.69"></path>
    <path d="M592.05 242.74C683.21 267.59 805.99 282.86 901.52 293.87 932.78 311.43 884.71 337.74 782.1 385.04 661.01 452.71 563.81 548.28 514.43 661.85 518.8 759.55 564.34 821.69 627.26 814.98 737.3 635.53 629.22 909.37 558.98 762.38 512.39 614.31 475.47 582.43 450.61 706.72 425.76 879.46 414.16 941.51 413.87 846.42 414.64 618.43 410.36 767.29 364.24 882.68 304.06 830.42 219.43 705.01 118.14 571.48 -14.84 454.55 -21.64 540.08 118.69 613.86 203.08 647.94 237 657.11 196.15 648.05 91.02 632.54 -36.78 609.76 -127.94 584.91 -137.93 560.05 -61.96 534.31 60.13 502.95 176.7 465.15 240.98 410.77 236.49 333.63 170.3 246.81 77.71 145.84 -3.85 51.81 -54.66 -3.73 -55.07 -4.58 -11.58 62.33 65.29 163.28 156.06 259.23 243.11 285.64 324.15 209.15 386.67 57.38 431.65 -84.29 465.07 -119.59 488.37 -21 508 141.01 524.25 226.54 543.43 159.51 568.28 -13.2 593.13 -137.54 622.49 -100.68 653.11 56.96 680.35 206.73 702.26 234.59 711.91 137.97 710 -7.24 688.41 -89.41 645.67 -61.83 596.93 56.99 541.84 200.85 497.53 305.86 486.62 345.15 516.49 318.69 593.18 259.3 700.63 184.03 815.51 129.38 899.91 104.79 922.62 100.55 872.49 119.46 765.51 148.76 652.99 184.62 582.07 217.89 592.05 242.74Q592.05 242.74 592.05 242.74" opacity="0.11"></path>
    <path d="M556.05 282.85C635.47 305.21 744.79 340.5 840.46 389.45 892.77 440.66 881.09 507.63 814.32 586.54 712.94 659.02 607.63 725.46 524.18 765.97 475.08 767.09 465.79 721.58 487.06 634.89 532.88 546.27 584.02 484.77 627.81 492.81 666.48 581.18 687.4 721.86 691.69 848.63 686.93 889.62 671.19 818.46 649.74 673.85 625.5 558.44 600.9 552.46 578.53 670.72 556.16 828.86 537.09 905.89 519.15 852.87 498.4 709.01 473.46 569.47 439.45 513.68 396.4 563.53 338.65 676.88 265.5 783.68 187.24 837.93 103.98 811.76 28.85 726.19 -21.73 608.19 -38.96 499.46 -13.14 422.55 47.01 379.43 132.26 370.24 217.24 379.28 267.62 403.96 266.57 425.67 205.62 435.5 101.33 446.22 -12.52 441.12 -91.94 418.75 -105.07 396.39 -46.54 357.82 57.15 304.93 169.81 252.92 253.36 190.51 286.37 127.06 264.11 79.25 202.11 51.59 125.65 60.22 50.54 102.65 2.39 179.26 -11.44 267.95 6.23 324.22 51.85 323.9 112.77 246.38 185.33 116.3 256.11 -17.12 318.38 -83.39 378.22 -44.02 426.89 82.75 465.11 218 501.35 262.43 530.27 180.91 552.64 22.79 575 -95.5 589.76 -85.04 595.7 38.96 599.67 192.22 591.69 276.14 570.62 251.57 547.11 141.2 513.17 20.57 475.08 -44.51 448.63 -29.27 435.13 58.74 446.77 176.67 489.92 292.68 564.59 370.31 662.99 403.66 762.74 397.63 844.8 368.02 883.46 334.31 866.84 294.16 796.01 267.88 691.99 258.85 596.92 252.08 542.92 260.48 556.05 282.85Q556.05 282.85 556.05 282.85" opacity="0.12"></path>
    <path d="M520.07 526.68C588.2 546.56 683.17 576.42 774.14 612.54 839.34 645.02 857.65 676.08 828.22 696.36 760.13 701.1 670.68 682.68 580.4 636.41 501.15 577.39 446.57 507.52 418.73 449.28 416.23 432.03 432.17 466.84 456.89 558.4 490.66 679.22 520.58 793.09 541.73 849.99 561.61 822.62 570.43 719.03 568.58 588.94 565.39 508.86 553.56 524.2 533.68 634.73 513.8 777.22 486.81 863.2 452.49 848.01 416.85 743.82 371.87 607.24 317.53 504.84 261.92 475.7 199.26 523.45 134.85 614.05 57.24 745.38 28.72 714.26 102.78 591.26 172.35 499.96 243.97 423.88 297.49 367.42 312.34 323.16 282.72 294 209.85 273.03 111.2 256.41 12.2 239.85 -55.92 219.97 -71.31 200.09 -28.7 177.83 55.2 156.95 156.66 140.42 247.49 133.4 306.99 143.2 325.57 165.2 304.72 208.52 257.03 269.18 191.27 324.73 128.49 369.81 81.01 381.35 49.33 343.76 41.93 256.77 55.03 136.46 84.1 25.15 124.23 -40.44 167.99 -25.9 216.93 61.89 262.34 187.15 300.57 283.69 339.29 291.25 369.3 201.27 389.19 58.8 409.07 -51.76 417.88 -63.12 416.66 24.6 395.26 224.38 412.58 4.3 488.28 41.98 561.82 126.27 648.17 224.69 734.64 314.35 803.04 391.28 841.73 442.44 837.74 472.16 792.83 486.33 713.32 491.44 619.54 496.45 543.29 497.82 504.69 506.79 520.05 526.67Q520.07 526.68 520.07 526.68" opacity="0.10"></path>
    <path d="M484.04 550.13C541.35 567.53 621.53 576.52 703.83 575.8 773.84 572.83 813.15 556.71 816.37 526.59 726.27 463.87 571.49 391.06 443.99 410.38 371.45 559.87 359.26 759.86 367.04 794.79 377.8 722.46 384.48 613.63 384.3 511.8 384.73 466.08 376.78 497.57 359.38 598.79 341.99 724.74 315.97 813.7 282.72 829.23 250.09 769.02 211.77 659.36 170.87 545.07 102.78 435.88 60.67 535.92 87.61 675.3 169.51 739.34 287.38 677.48 351.98 574.96 336.01 514.95 286.79 462.64 210.07 421.52 121.06 380.92 37.35 351.59 -19.95 334.19 -36.62 316.8 -8 312.16 56.01 319.95 140.97 328.26 228.02 348.92 300.37 378.78 364.8 421 318.95 428.56 231.78 318.92 122.69 65.47 143.04 232.1 174.66 335.47 197.73 313.22 218.85 220.74 236.24 94.79 253.64 -6.42 266.5 -34.39 276.23 18.04 287.56 126.58 298.93 245.32 313.69 330.4 361.33 320.97 451.3 157.88 588.16 54 720.93 80.28 803.69 207.39 764.76 330.41 705.16 390.68 628.02 438.44 549.77 474.23 492.47 507.76 467.37 532.73 484.04 550.13Q484.04 550.13 484.04 550.13" opacity="0.09"></path>
    <path d="M448.07 312.48C563.85 342.3 702.84 334.24 775.4 313.61 756.1 325.05 656.71 388.27 537.13 530.91 422.28 686.22 345.48 773.04 301.55 689.89 275.27 517.99 254.28 431.68 224.46 562.73 176.71 768.1 140.77 416.53 231.66 469.65 312.15 590.68 379.91 660.25 377.35 665.92 282.93 637.37 131.85 592.7 16.07 562.88 15.01 533.05 128.37 520.9 272.75 497.76 379.75 440.41 407.8 324.3 377.56 164.18 307.73 52.3 248.11 60 220.63 213.99 202.36 355.26 211.95 329.02 241.77 130.73 271.59 -0.32 318.82 98.08 388.76 291.84 467.92 396.84 574.08 341.66 683.01 225.44 752.36 121.88 755.95 105.2 670.83 145.45 548.31 217.76 447.03 282.65 448.05 312.47Q448.07 312.48 448.07 312.48" opacity="0.52"></path>
    <path d="M412.07 226.98C503.26 251.83 620.5 292.12 706.53 359.13 740.97 440.7 709.12 556.49 638.18 672.19 543.66 728.53 455.01 691.29 388.04 557.16 326.6 429.08 284.23 402.44 259.38 526.73 234.52 699.48 229.54 759.39 247.91 674.98 271.81 514.48 321.67 387.27 383.62 342.97 421.98 374.16 427.47 435.99 374.82 480.97 270.57 524.52 143.26 533.06 52.07 508.2 42.05 483.35 117.97 427.46 233.8 340.84 349.75 252.79 426.59 152.18 457.36 88.41 435.84 150.54 377.02 374.49 400.45 166.8 425.31 42.46 475.51 79.13 543.23 225.41 638.43 409.59 688.48 296 565.51 219 467.9 195.06 402.05 202.13 412.07 226.98Q412.07 226.98 412.07 226.98" opacity="0.80"></path>
    <path d="M376.07 442.38C444.19 462.26 534.66 509.55 615.4 572.92 676.49 626.43 697.12 671 683.11 675.75 644.25 634.31 591.98 540.44 542.86 427.05 489.99 361.87 450.28 380.21 430.4 490.73 410.52 633.22 412.34 716.15 430.76 704.53 445.42 614.48 466.67 493.04 479.46 391.43 467.42 319.14 425.7 288.28 350.03 279.47 254.72 285.55 156.19 285.22 88.07 265.34 72.68 245.46 115.74 207.9 194.87 167.37 291.21 141.73 379.17 141.56 443.71 187.79 488.31 263.34 511.71 363.69 524.63 439.17 529.75 436.21 538.82 345.22 558.7 202.73 578.57 92.2 607.38 81.92 636.72 161.68 658.26 289.64 665.9 404.61 647.37 472.1 608.9 493.41 542.03 479.87 460.27 460.82 395.7 431.9 360.69 422.49 376.05 442.37Q376.07 442.38 376.07 442.38" opacity="0.29"></path>
    <path d="M339.94 584C455.56 613.83 582 611.1 636.13 513.97 641.73 394.97 601.93 323.62 572.11 454.67 542.29 652.96 528.09 665.5 483.4 544.73 390.18 384.23 239.56 286.43 123.94 256.6 123.13 226.78 235.69 270.58 356.71 392 467.67 473.68 533.65 436.96 563.47 238.67 593.29 107.62 581.31 203.14 509.44 361.24 427.52 497.46 339.13 554.18 339.94 584Q339.94 584 339.94 584" opacity="0.09"></path>
    <path d="M304.07 405.63C372.19 425.51 453.67 384.63 508.53 316.51 555.5 284.08 566.99 308.21 547.11 418.73 527.22 561.23 479.73 637.88 406.71 633.12 325.79 579.98 228.19 517.14 160.07 497.26 144.68 477.38 188.71 504.22 252.52 531.3 329.56 510 389.97 417.23 409.86 274.73 429.74 164.21 405.33 156.2 354.35 214.69 316.6 308.86 288.68 385.74 304.07 405.63Q304.07 405.63 304.07 405.63" opacity="0.82"></path>
  </g>
</svg>